<svg viewBox="0 0 200 57.8" xmlns="http://www.w3.org/2000/svg" xmlns:xlink="http://www.w3.org/1999/xlink"><linearGradient id="svg-header-logo-a" gradientUnits="userSpaceOnUse" x1="32.29" x2="26.24" y1="47.61" y2="6.24"><stop offset=".79" stop-color="#fff" stop-opacity="0"/><stop offset="1" stop-color="#fff"/></linearGradient><linearGradient id="svg-header-logo-b" x1="21.61" x2="17.54" xlink:href="#a" y1="45.1" y2="17.25"/><linearGradient id="svg-header-logo-c" x1="42.06" x2="38.56" xlink:href="#a" y1="42.96" y2="18.99"/><g fill="#fff"><path d="m98.48 35.18c.1.91.28 2.32 1.36 2.68a5.64 5.64 0 0 0 1.64.22c.13 0 .2 0 .2.13s-.22.23-.53.23c-.55 0-3.28-.08-4.21-.15-.58 0-.71-.13-.71-.26s0-.15.18-.17.15-.46.1-.91l-1.21-13h-.08l-6.22 13.1c-.53 1.11-.6 1.34-.83 1.34s-.3-.25-.78-1.16c-.66-1.24-2.83-5.61-3-5.86-.22-.45-3-6.51-3.33-7.19h-.06l-1 11.71v1.29a.82.82 0 0 0 .66.78 4.46 4.46 0 0 0 1 .12c.1 0 .21.06.21.13s-.16.23-.46.23c-.93 0-2.14-.08-2.35-.08s-1.43.08-2.11.08c-.26 0-.43 0-.43-.23s.12-.13.25-.13a3.54 3.54 0 0 0 .76-.07c.83-.15.9-1.14 1-2.1l1.82-16.45c0-.28.13-.45.28-.45s.25.1.38.38l7.72 15.87 7.42-15.85c.1-.23.2-.4.37-.4s.26.2.31.68z"/><path d="m109.92 30.54c.43 0 .76.05.76.25s-.48.35-.89.43c-.68.1-5.14.71-6 .94-.48.12-.91.37-1 .37s-.17-.15-.12-.37l.37-1.42c.06-.18.16-.2.56-.2z"/><path d="m121.43 31.12c0 2.42 0 4.42.12 5.47.08.74.23 1.29 1 1.39a11.11 11.11 0 0 0 1.13.1c.15 0 .2.08.2.16s-.12.2-.4.2c-1.39 0-3-.08-3.1-.08s-1.72.08-2.48.08c-.27 0-.4 0-.4-.2s.05-.16.2-.16a4 4 0 0 0 .76-.1c.5-.1.63-.65.73-1.39.13-1.05.13-3.05.13-5.47v-10.67l-3.74.05c-1.56 0-2.17.2-2.57.81a4.18 4.18 0 0 0 -.43.78c-.07.2-.15.25-.25.25s-.13-.08-.13-.23.51-2.42.56-2.62.15-.48.25-.48a4.82 4.82 0 0 0 1.11.3c.73.08 1.69.13 2 .13h9.46a9.75 9.75 0 0 0 1.8-.13c.38 0 .6-.13.7-.13s.13.16.13.31c0 .76-.08 2.5-.08 2.77s-.07.33-.17.33-.18-.07-.2-.43v-.28c-.08-.75-.68-1.33-3.1-1.38l-3.18-.05z"/><path d="m133.49 26.68c0-3.94 0-4.64-.05-5.45s-.25-1.26-1.08-1.44a4.76 4.76 0 0 0 -.86-.07.18.18 0 0 1 -.2-.16c0-.15.13-.2.4-.2 1.14 0 2.73.08 2.86.08s2.19-.08 3-.08a7.77 7.77 0 0 1 4.62 1.11 4.43 4.43 0 0 1 1.74 3.43c0 1.87-.78 3.74-3 5.83 2.07 2.65 3.78 4.9 5.25 6.46a5.2 5.2 0 0 0 2.99 1.81 6.61 6.61 0 0 0 1 .07c.13 0 .23.08.23.16s-.16.2-.61.2h-1.78a5.16 5.16 0 0 1 -2.7-.48c-1.09-.58-2-1.82-3.41-3.71-1.06-1.39-2.24-3.08-2.75-3.74a.4.4 0 0 0 -.33-.15l-3.1-.05c-.13 0-.18.08-.18.2v.61c0 2.42 0 4.42.13 5.47.07.74.23 1.29 1 1.39a11.27 11.27 0 0 0 1.14.1c.15 0 .2.08.2.16s-.13.2-.4.2c-1.39 0-3-.08-3.11-.08s-1.61.08-2.37.08c-.28 0-.4 0-.4-.2s0-.16.2-.16a4 4 0 0 0 .76-.1c.5-.1.63-.65.73-1.39.12-1.05.12-3.05.12-5.47zm2 2.19a.34.34 0 0 0 .18.31 6.92 6.92 0 0 0 2.65.4 3.21 3.21 0 0 0 1.89-.48 4.58 4.58 0 0 0 1.54-3.88c0-3.16-1.66-5-4.36-5a8.16 8.16 0 0 0 -1.7.15.31.31 0 0 0 -.2.3z"/><path d="m151.06 26.68c0-3.94 0-4.64-.05-5.45s-.25-1.26-1.08-1.44a4.83 4.83 0 0 0 -.86-.07.18.18 0 0 1 -.2-.16c0-.15.13-.2.4-.2 1.14 0 2.68.08 2.9.08s1.74-.08 2.5-.08c.28 0 .4.05.4.2a.18.18 0 0 1 -.2.16 3.8 3.8 0 0 0 -.63.07c-.68.1-.88.56-.93 1.44s-.05 1.51-.05 5.45v3.53c0 3.63.81 5.2 1.89 6.23a4.94 4.94 0 0 0 3.85 1.39 5.28 5.28 0 0 0 4-1.82c1.16-1.43 1.46-3.58 1.46-6.18v-3.15c0-3.94 0-4.64 0-5.45s-.25-1.26-1.08-1.44a4.76 4.76 0 0 0 -.86-.07.18.18 0 0 1 -.2-.16c0-.15.13-.2.4-.2 1.14 0 2.53.08 2.68.08s1.36-.08 2.12-.08c.28 0 .4.05.4.2a.18.18 0 0 1 -.2.16 3.6 3.6 0 0 0 -.63.07c-.68.15-.88.56-.93 1.44s-.05 1.51-.05 5.45v2.7c0 2.72-.31 5.75-2.32 7.54a7.38 7.38 0 0 1 -5.2 1.87 7.75 7.75 0 0 1 -5.2-1.79c-1.24-1.19-2.2-3-2.2-6.64z"/><path d="m171.86 38.11c-.35-.18-.38-.28-.38-1 0-1.26.1-2.27.13-2.67s.07-.41.2-.41.18.08.18.28a4.73 4.73 0 0 0 .07.93c.38 1.87 2.05 2.58 3.74 2.58a3.37 3.37 0 0 0 3.6-3.36c0-1.74-.73-2.75-2.9-4.54l-1.13-.92c-2.68-2.2-3.28-3.76-3.28-5.48 0-2.7 2-4.54 5.22-4.54a9.86 9.86 0 0 1 2.35.25 4.28 4.28 0 0 0 .88.13c.2 0 .25.05.25.17s-.1 1-.1 2.68c0 .4-.05.58-.18.58s-.17-.13-.2-.33a4.05 4.05 0 0 0 -.33-1.26c-.15-.28-.83-1.34-3.15-1.34a2.87 2.87 0 0 0 -3.1 2.93c0 1.44.65 2.34 3.08 4.24l.7.55c3 2.35 3.69 3.91 3.69 5.93a5.24 5.24 0 0 1 -2.15 4.19 6.59 6.59 0 0 1 -3.81 1.06 7.58 7.58 0 0 1 -3.38-.65z"/><path d="m193.24 31.12c0 2.42 0 4.42.12 5.47.08.74.23 1.29 1 1.39a11.11 11.11 0 0 0 1.13.1c.16 0 .21.08.21.16s-.13.2-.41.2c-1.39 0-3-.08-3.1-.08s-1.72.08-2.47.08c-.28 0-.41 0-.41-.2s0-.16.2-.16a4 4 0 0 0 .76-.1c.5-.1.63-.65.73-1.39.13-1.05.13-3.05.13-5.47v-10.67l-3.74.05c-1.56 0-2.17.2-2.57.81a4.18 4.18 0 0 0 -.43.78c-.07.2-.15.25-.25.25s-.13-.08-.13-.23.51-2.42.56-2.62.15-.48.25-.48a4.82 4.82 0 0 0 1.11.3c.73.08 1.69.13 2 .13h9.47a9.7 9.7 0 0 0 1.79-.13c.37 0 .6-.13.7-.13s.13.16.13.31c0 .76-.08 2.5-.08 2.77s-.07.33-.17.33-.18-.07-.21-.43v-.28c-.08-.75-.68-1.33-3.1-1.38l-3.18-.05z"/></g><path d="m28.53 25a38.89 38.89 0 0 1 -1.88 9.21l-.09.23 2.82 8.68 2.81-8.62-.08-.29a38.89 38.89 0 0 1 -1.88-9.21 6.09 6.09 0 0 1 1.57-2.53l.17-.15.26-1.07-2.14-12.69h-1.41l-2.15 12.65.26 1.07.17.15a6 6 0 0 1 1.57 2.57z" fill="url(#svg-header-logo-a)"/><path d="m13 20.45a29.83 29.83 0 0 1 4.27 9.31 38.2 38.2 0 0 1 1.06 7.54v.43l6.85 3.51-.09-1.24c-.24-3.07-3.08-9.81-5.64-13.59l.42.21c2.48 1.15 2.94 1.38 3.27 1.38h.44l.23-.4.2-.38-.26-.39c-.44-.65-2.47-2.09-5.77-4.41-1.67-1.17-3.57-2.5-3.88-2.83z" fill="url(#svg-header-logo-b)"/><path d="m39.93 26.37c-2.56 3.78-5.4 10.52-5.64 13.59l-.1 1.28 6.86-3.51v-.43a37.41 37.41 0 0 1 1.07-7.54 29.59 29.59 0 0 1 4.26-9.31l-1.11-.89c-.3.33-2.21 1.66-3.88 2.84-3.3 2.31-5.33 3.75-5.77 4.4l-.25.35.2.42.2.39h.46c.33 0 .79-.2 3.27-1.39l.42-.21z" fill="url(#svg-header-logo-c)"/><path d="m29.69 0a77.17 77.17 0 0 0 -29.69 5.9 77.38 77.38 0 0 0 29.69 51.9 77.3 77.3 0 0 0 29.69-51.9 77.17 77.17 0 0 0 -29.69-5.9zm17.51 33.76a74.66 74.66 0 0 1 -17.2 20.24l-.32.26-.31-.26a75 75 0 0 1 -17.19-20.24 73.86 73.86 0 0 1 -9.1-25.7l-.08-.4.38-.15a75 75 0 0 1 52.62 0l.39.15-.07.4a73.86 73.86 0 0 1 -9.12 25.7z" fill="#fff" opacity=".8"/><path d="m19 37.28a38.81 38.81 0 0 0 -1-7.71 30.75 30.75 0 0 0 -4.42-9.57c.81.9 8.88 6.13 9.58 7.16.36.52-6.6-3.21-6.27-2.66 2.53 1.62 7.19 11.7 7.49 15.48zm17.22-10.08c.71-1 8.77-6.26 9.59-7.16a30.3 30.3 0 0 0 -4.37 9.53 38.76 38.76 0 0 0 -1.1 7.71l-5.34 2.72c.3-3.78 5-13.86 7.5-15.48.32-.52-6.63 3.2-6.28 2.68zm-4.77 7.23-2.05 6.29-2.05-6.29a39.59 39.59 0 0 0 1.94-9.55 6.75 6.75 0 0 0 -1.82-3l-.18-.72 2.12-12.5 2.12 12.5-.17.72a6.58 6.58 0 0 0 -1.82 3 38.64 38.64 0 0 0 1.91 9.55z" fill="#fff" opacity=".8"/></svg>